<svg xmlns="http://www.w3.org/2000/svg" xmlns:xlink="http://www.w3.org/1999/xlink" width="40" zoomAndPan="magnify" viewBox="0 0 30 30.000001" height="40" preserveAspectRatio="xMidYMid meet" version="1.0"><defs><clipPath id="0a44339c57"><path d="M 0.484375 0.589844 L 29.515625 0.589844 L 29.515625 23 L 0.484375 23 Z M 0.484375 0.589844 " clip-rule="nonzero"/></clipPath></defs><g clip-path="url(#0a44339c57)"><path fill="#010101" d="M 27.121094 17.441406 C 27.8125 13.773438 28.609375 10.121094 29.308594 6.453125 C 29.515625 5.347656 28.886719 3.933594 27.667969 3.757812 C 27.128906 3.609375 26.496094 4.179688 26.71875 4.722656 C 26.789062 5.179688 27.3125 5.230469 27.667969 5.347656 C 27.773438 5.640625 27.972656 5.949219 27.847656 6.277344 C 27.769531 6.671875 27.6875 7.0625 27.609375 7.457031 L 9.644531 7.457031 C 9.292969 7.457031 9.003906 7.742188 9.003906 8.09375 C 9.003906 8.445312 9.292969 8.730469 9.644531 8.730469 L 27.351562 8.730469 C 26.875 11.117188 26.386719 13.503906 25.914062 15.894531 C 25.808594 16.390625 25.734375 16.902344 25.523438 17.375 C 25.144531 17.519531 24.722656 17.445312 24.328125 17.464844 C 19.65625 17.453125 14.984375 17.460938 10.316406 17.460938 C 9.128906 12.449219 7.960938 7.4375 6.769531 2.425781 C 6.617188 1.480469 5.800781 0.609375 4.789062 0.644531 C 3.578125 0.648438 2.363281 0.59375 1.152344 0.675781 C 0.484375 0.902344 0.484375 1.878906 1.140625 2.128906 C 2.414062 2.246094 3.707031 2.09375 4.980469 2.203125 C 5.289062 2.347656 5.230469 2.769531 5.351562 3.046875 C 6.746094 9 8.152344 14.953125 9.574219 20.90625 C 9.753906 21.878906 10.691406 22.652344 11.703125 22.558594 C 16.691406 22.550781 21.679688 22.574219 26.664062 22.542969 C 27.617188 22.574219 27.621094 21.015625 26.671875 21.039062 C 22.195312 21.011719 17.722656 21.03125 13.25 21.027344 C 12.578125 21.011719 11.894531 21.089844 11.230469 20.957031 C 10.933594 20.335938 10.855469 19.644531 10.675781 18.988281 C 15.484375 18.988281 20.292969 18.992188 25.101562 18.988281 C 26.035156 19.066406 26.980469 18.367188 27.121094 17.441406 Z M 27.121094 17.441406 " fill-opacity="1" fill-rule="nonzero"/></g><path fill="#010101" d="M 12.253906 23.121094 C 11.375 23.289062 10.644531 24.015625 10.472656 24.890625 C 10.1875 26.089844 11.050781 27.398438 12.28125 27.605469 C 13.554688 27.894531 14.921875 26.921875 15.03125 25.628906 C 15.269531 24.132812 13.738281 22.746094 12.253906 23.121094 Z M 13.371094 25.777344 C 13.125 26.179688 12.496094 26.261719 12.183594 25.886719 C 11.757812 25.511719 11.992188 24.761719 12.523438 24.628906 C 13.15625 24.390625 13.820312 25.25 13.371094 25.777344 Z M 13.371094 25.777344 " fill-opacity="1" fill-rule="nonzero"/><path fill="#010101" d="M 23.601562 23.113281 C 21.917969 23.371094 21.148438 25.628906 22.304688 26.855469 C 23.351562 28.167969 25.714844 27.761719 26.230469 26.160156 C 26.910156 24.566406 25.296875 22.691406 23.601562 23.113281 Z M 24.480469 25.992188 C 23.691406 26.601562 22.769531 25.210938 23.636719 24.726562 C 24.429688 24.117188 25.355469 25.507812 24.480469 25.992188 Z M 24.480469 25.992188 " fill-opacity="1" fill-rule="nonzero"/></svg>