<svg xmlns="http://www.w3.org/2000/svg" xmlns:xlink="http://www.w3.org/1999/xlink" width="175" zoomAndPan="magnify" viewBox="0 0 131.25 30.000001" height="40" preserveAspectRatio="xMidYMid meet" version="1.0"><defs><g/><clipPath id="07b3c29966"><path d="M 125 23 L 128.769531 23 L 128.769531 28 L 125 28 Z M 125 23 " clip-rule="nonzero"/></clipPath></defs><g fill="#ffbd4d" fill-opacity="1"><g transform="translate(2.029822, 21.576392)"><g><path d="M 0.5625 -17.21875 L 13.015625 -17.21875 L 13.015625 -13.859375 L 8.625 -13.859375 L 8.625 0 L 4.953125 0 L 4.953125 -13.859375 L 0.5625 -13.859375 Z M 0.5625 -17.21875 "/></g></g></g><g fill="#000000" fill-opacity="1"><g transform="translate(15.587728, 21.576392)"><g><path d="M 7.796875 -12.390625 C 8.585938 -12.390625 9.328125 -12.222656 10.015625 -11.890625 C 10.703125 -11.554688 11.296875 -11.097656 11.796875 -10.515625 C 12.296875 -9.941406 12.6875 -9.269531 12.96875 -8.5 C 13.257812 -7.738281 13.40625 -6.921875 13.40625 -6.046875 L 13.40625 0 L 10.125 0 L 10.125 -2.203125 C 10.125 -2.816406 10.128906 -3.453125 10.140625 -4.109375 C 10.148438 -4.765625 10.15625 -5.328125 10.15625 -5.796875 C 10.15625 -6.253906 10.082031 -6.703125 9.9375 -7.140625 C 9.789062 -7.578125 9.585938 -7.960938 9.328125 -8.296875 C 9.066406 -8.628906 8.757812 -8.894531 8.40625 -9.09375 C 8.0625 -9.289062 7.695312 -9.390625 7.3125 -9.390625 C 6.9375 -9.390625 6.578125 -9.320312 6.234375 -9.1875 C 5.898438 -9.050781 5.601562 -8.847656 5.34375 -8.578125 C 5.082031 -8.316406 4.875 -7.984375 4.71875 -7.578125 C 4.5625 -7.171875 4.484375 -6.691406 4.484375 -6.140625 L 4.484375 0 L 1.109375 0 L 1.109375 -17.71875 L 4.484375 -17.71875 L 4.484375 -11.125 C 4.910156 -11.53125 5.394531 -11.84375 5.9375 -12.0625 C 6.476562 -12.28125 7.097656 -12.390625 7.796875 -12.390625 Z M 7.796875 -12.390625 "/></g></g></g><g fill="#000000" fill-opacity="1"><g transform="translate(29.397133, 21.576392)"><g><path d="M 7.046875 -12.390625 C 7.953125 -12.390625 8.773438 -12.207031 9.515625 -11.84375 C 10.265625 -11.476562 10.90625 -11 11.4375 -10.40625 C 11.96875 -9.8125 12.378906 -9.128906 12.671875 -8.359375 C 12.960938 -7.597656 13.109375 -6.8125 13.109375 -6 C 13.109375 -5.507812 13.046875 -4.988281 12.921875 -4.4375 L 4.328125 -4.4375 C 4.648438 -3.894531 5.109375 -3.429688 5.703125 -3.046875 C 6.304688 -2.671875 6.957031 -2.484375 7.65625 -2.484375 C 8.34375 -2.484375 8.945312 -2.535156 9.46875 -2.640625 C 10 -2.753906 10.5 -2.898438 10.96875 -3.078125 L 12.09375 -1.015625 C 11.488281 -0.597656 10.800781 -0.273438 10.03125 -0.046875 C 9.269531 0.179688 8.453125 0.296875 7.578125 0.296875 C 6.617188 0.296875 5.726562 0.128906 4.90625 -0.203125 C 4.082031 -0.535156 3.363281 -0.984375 2.75 -1.546875 C 2.132812 -2.117188 1.644531 -2.789062 1.28125 -3.5625 C 0.925781 -4.34375 0.75 -5.171875 0.75 -6.046875 C 0.75 -6.898438 0.910156 -7.710938 1.234375 -8.484375 C 1.554688 -9.253906 2.003906 -9.925781 2.578125 -10.5 C 3.160156 -11.070312 3.832031 -11.53125 4.59375 -11.875 C 5.351562 -12.21875 6.171875 -12.390625 7.046875 -12.390625 Z M 9.78125 -7.046875 C 9.59375 -7.734375 9.242188 -8.296875 8.734375 -8.734375 C 8.234375 -9.171875 7.671875 -9.390625 7.046875 -9.390625 C 6.398438 -9.390625 5.8125 -9.171875 5.28125 -8.734375 C 4.75 -8.296875 4.390625 -7.734375 4.203125 -7.046875 Z M 9.78125 -7.046875 "/></g></g></g><g fill="#ffbd4d" fill-opacity="1"><g transform="translate(43.828771, 21.576392)"><g/></g></g><g fill="#ffbd4d" fill-opacity="1"><g transform="translate(50.502913, 21.576392)"><g><path d="M 16.21875 -17.21875 L 19.6875 -17.21875 L 19.6875 0 L 16.03125 0 L 16.03125 -11.359375 L 11.921875 -5.609375 L 8.984375 -5.609375 L 4.828125 -11.1875 L 4.828125 0 L 1.140625 0 L 1.140625 -17.21875 L 4.640625 -17.21875 L 10.46875 -9.28125 Z M 16.21875 -17.21875 "/></g></g></g><g fill="#000000" fill-opacity="1"><g transform="translate(71.319661, 21.576392)"><g><path d="M 13.6875 -12.046875 L 13.6875 0 L 10.8125 0 L 10.46875 -1.28125 C 10 -0.65625 9.4375 -0.234375 8.78125 -0.015625 C 8.125 0.191406 7.4375 0.296875 6.71875 0.296875 C 5.863281 0.296875 5.078125 0.128906 4.359375 -0.203125 C 3.640625 -0.535156 3.007812 -0.988281 2.46875 -1.5625 C 1.9375 -2.132812 1.519531 -2.804688 1.21875 -3.578125 C 0.925781 -4.347656 0.78125 -5.171875 0.78125 -6.046875 C 0.78125 -6.921875 0.925781 -7.738281 1.21875 -8.5 C 1.519531 -9.269531 1.9375 -9.941406 2.46875 -10.515625 C 3.007812 -11.097656 3.640625 -11.554688 4.359375 -11.890625 C 5.078125 -12.222656 5.863281 -12.390625 6.71875 -12.390625 C 7.5 -12.390625 8.210938 -12.265625 8.859375 -12.015625 C 9.503906 -11.773438 10.039062 -11.390625 10.46875 -10.859375 L 10.8125 -12.046875 Z M 10.34375 -6 C 10.34375 -6.625 10.253906 -7.148438 10.078125 -7.578125 C 9.910156 -8.015625 9.6875 -8.363281 9.40625 -8.625 C 9.125 -8.894531 8.789062 -9.085938 8.40625 -9.203125 C 8.03125 -9.328125 7.625 -9.390625 7.1875 -9.390625 C 6.75 -9.390625 6.335938 -9.300781 5.953125 -9.125 C 5.578125 -8.945312 5.242188 -8.707031 4.953125 -8.40625 C 4.660156 -8.113281 4.429688 -7.757812 4.265625 -7.34375 C 4.109375 -6.925781 4.03125 -6.492188 4.03125 -6.046875 C 4.03125 -5.578125 4.109375 -5.140625 4.265625 -4.734375 C 4.429688 -4.328125 4.660156 -3.972656 4.953125 -3.671875 C 5.242188 -3.378906 5.578125 -3.140625 5.953125 -2.953125 C 6.335938 -2.773438 6.75 -2.6875 7.1875 -2.6875 C 8.0625 -2.6875 8.800781 -2.957031 9.40625 -3.5 C 10.007812 -4.050781 10.320312 -4.882812 10.34375 -6 Z M 10.34375 -6 "/></g></g></g><g fill="#000000" fill-opacity="1"><g transform="translate(86.075592, 21.576392)"><g><path d="M 4.390625 -10.375 C 4.554688 -10.625 4.742188 -10.863281 4.953125 -11.09375 C 5.160156 -11.332031 5.410156 -11.546875 5.703125 -11.734375 C 5.992188 -11.921875 6.328125 -12.070312 6.703125 -12.1875 C 7.078125 -12.300781 7.5 -12.359375 7.96875 -12.359375 C 8.519531 -12.359375 9.15625 -12.257812 9.875 -12.0625 L 9.5625 -9.078125 C 9.382812 -9.109375 9.207031 -9.148438 9.03125 -9.203125 C 8.882812 -9.234375 8.722656 -9.257812 8.546875 -9.28125 C 8.367188 -9.3125 8.207031 -9.328125 8.0625 -9.328125 C 7.539062 -9.328125 7.054688 -9.253906 6.609375 -9.109375 C 6.171875 -8.960938 5.789062 -8.757812 5.46875 -8.5 C 5.144531 -8.238281 4.882812 -7.925781 4.6875 -7.5625 C 4.488281 -7.195312 4.390625 -6.804688 4.390625 -6.390625 L 4.390625 0 L 1.046875 0 L 1.046875 -12.046875 L 4.078125 -12.046875 Z M 4.390625 -10.375 "/></g></g></g><g fill="#000000" fill-opacity="1"><g transform="translate(96.074669, 21.576392)"><g><path d="M 5.53125 -4.328125 C 5.53125 -3.753906 5.703125 -3.3125 6.046875 -3 C 6.398438 -2.695312 6.863281 -2.546875 7.4375 -2.546875 C 7.882812 -2.546875 8.335938 -2.632812 8.796875 -2.8125 L 8.796875 0 C 8.390625 0.125 7.957031 0.234375 7.5 0.328125 C 7.050781 0.421875 6.597656 0.46875 6.140625 0.46875 C 5.617188 0.46875 5.125 0.398438 4.65625 0.265625 C 4.1875 0.140625 3.765625 -0.078125 3.390625 -0.390625 C 3.023438 -0.710938 2.734375 -1.132812 2.515625 -1.65625 C 2.296875 -2.1875 2.1875 -2.84375 2.1875 -3.625 L 2.1875 -9.0625 L 0.46875 -9.0625 L 0.46875 -11.3125 L 2.1875 -12.046875 L 2.1875 -14.734375 L 5.53125 -14.734375 L 5.53125 -12.046875 L 8.796875 -12.046875 L 8.796875 -9.0625 L 5.53125 -9.0625 Z M 5.53125 -4.328125 "/></g></g></g><g fill="#000000" fill-opacity="1"><g transform="translate(105.850175, 27.409827)"><g><path d="M 2.5625 0.078125 C 2.164062 0.078125 1.8125 0.03125 1.5 -0.0625 C 1.1875 -0.164062 0.925781 -0.296875 0.71875 -0.453125 C 0.507812 -0.617188 0.347656 -0.796875 0.234375 -0.984375 L 0.859375 -1.75 L 0.96875 -1.75 C 1.132812 -1.488281 1.351562 -1.28125 1.625 -1.125 C 1.894531 -0.976562 2.207031 -0.90625 2.5625 -0.90625 C 2.875 -0.90625 3.109375 -0.96875 3.265625 -1.09375 C 3.421875 -1.226562 3.5 -1.410156 3.5 -1.640625 C 3.5 -1.773438 3.472656 -1.890625 3.421875 -1.984375 C 3.367188 -2.078125 3.285156 -2.15625 3.171875 -2.21875 C 3.054688 -2.28125 2.898438 -2.335938 2.703125 -2.390625 L 1.953125 -2.5625 C 1.429688 -2.675781 1.039062 -2.867188 0.78125 -3.140625 C 0.53125 -3.421875 0.40625 -3.78125 0.40625 -4.21875 C 0.40625 -4.550781 0.488281 -4.835938 0.65625 -5.078125 C 0.820312 -5.328125 1.0625 -5.519531 1.375 -5.65625 C 1.6875 -5.800781 2.054688 -5.875 2.484375 -5.875 C 2.929688 -5.875 3.3125 -5.8125 3.625 -5.6875 C 3.945312 -5.570312 4.21875 -5.394531 4.4375 -5.15625 L 3.875 -4.375 L 3.78125 -4.375 C 3.613281 -4.550781 3.425781 -4.679688 3.21875 -4.765625 C 3.007812 -4.847656 2.765625 -4.890625 2.484375 -4.890625 C 2.171875 -4.890625 1.929688 -4.832031 1.765625 -4.71875 C 1.609375 -4.613281 1.53125 -4.460938 1.53125 -4.265625 C 1.53125 -4.085938 1.585938 -3.941406 1.703125 -3.828125 C 1.816406 -3.722656 2.015625 -3.640625 2.296875 -3.578125 L 3.0625 -3.421875 C 3.625 -3.304688 4.03125 -3.101562 4.28125 -2.8125 C 4.53125 -2.53125 4.65625 -2.160156 4.65625 -1.703125 C 4.65625 -1.347656 4.578125 -1.035156 4.421875 -0.765625 C 4.265625 -0.492188 4.03125 -0.285156 3.71875 -0.140625 C 3.40625 0.00390625 3.019531 0.078125 2.5625 0.078125 Z M 2.5625 0.078125 "/></g></g></g><g fill="#000000" fill-opacity="1"><g transform="translate(110.82326, 27.409827)"><g><path d="M 4.3125 -1.9375 L 1.515625 -1.921875 C 1.546875 -1.546875 1.648438 -1.269531 1.828125 -1.09375 C 2.015625 -0.925781 2.269531 -0.84375 2.59375 -0.84375 C 2.84375 -0.84375 3.046875 -0.890625 3.203125 -0.984375 C 3.359375 -1.078125 3.484375 -1.21875 3.578125 -1.40625 L 3.65625 -1.40625 L 4.390625 -0.953125 C 4.242188 -0.640625 4.023438 -0.390625 3.734375 -0.203125 C 3.453125 -0.015625 3.070312 0.078125 2.59375 0.078125 C 2.132812 0.078125 1.738281 -0.00390625 1.40625 -0.171875 C 1.082031 -0.347656 0.832031 -0.601562 0.65625 -0.9375 C 0.476562 -1.28125 0.390625 -1.695312 0.390625 -2.1875 C 0.390625 -2.675781 0.484375 -3.09375 0.671875 -3.4375 C 0.859375 -3.78125 1.109375 -4.035156 1.421875 -4.203125 C 1.742188 -4.367188 2.109375 -4.453125 2.515625 -4.453125 C 3.128906 -4.453125 3.597656 -4.285156 3.921875 -3.953125 C 4.253906 -3.628906 4.421875 -3.148438 4.421875 -2.515625 C 4.421875 -2.285156 4.414062 -2.109375 4.40625 -1.984375 Z M 3.375 -2.640625 C 3.363281 -2.972656 3.285156 -3.210938 3.140625 -3.359375 C 2.992188 -3.515625 2.785156 -3.59375 2.515625 -3.59375 C 1.953125 -3.59375 1.625 -3.273438 1.53125 -2.640625 Z M 3.375 -2.640625 "/></g></g></g><g fill="#000000" fill-opacity="1"><g transform="translate(115.57066, 27.409827)"><g><path d="M 1.8125 0.078125 C 1.414062 0.078125 1.113281 -0.0234375 0.90625 -0.234375 C 0.707031 -0.441406 0.609375 -0.765625 0.609375 -1.203125 L 0.609375 -6.125 L 1.703125 -6.125 L 1.703125 -1.25 C 1.703125 -0.976562 1.8125 -0.84375 2.03125 -0.84375 C 2.09375 -0.84375 2.160156 -0.851562 2.234375 -0.875 L 2.28125 -0.859375 L 2.390625 -0.015625 C 2.328125 0.015625 2.242188 0.0351562 2.140625 0.046875 C 2.046875 0.0664062 1.9375 0.078125 1.8125 0.078125 Z M 1.8125 0.078125 "/></g></g></g><g fill="#000000" fill-opacity="1"><g transform="translate(118.08096, 27.409827)"><g><path d="M 1.8125 0.078125 C 1.414062 0.078125 1.113281 -0.0234375 0.90625 -0.234375 C 0.707031 -0.441406 0.609375 -0.765625 0.609375 -1.203125 L 0.609375 -6.125 L 1.703125 -6.125 L 1.703125 -1.25 C 1.703125 -0.976562 1.8125 -0.84375 2.03125 -0.84375 C 2.09375 -0.84375 2.160156 -0.851562 2.234375 -0.875 L 2.28125 -0.859375 L 2.390625 -0.015625 C 2.328125 0.015625 2.242188 0.0351562 2.140625 0.046875 C 2.046875 0.0664062 1.9375 0.078125 1.8125 0.078125 Z M 1.8125 0.078125 "/></g></g></g><g fill="#000000" fill-opacity="1"><g transform="translate(120.591259, 27.409827)"><g><path d="M 4.3125 -1.9375 L 1.515625 -1.921875 C 1.546875 -1.546875 1.648438 -1.269531 1.828125 -1.09375 C 2.015625 -0.925781 2.269531 -0.84375 2.59375 -0.84375 C 2.84375 -0.84375 3.046875 -0.890625 3.203125 -0.984375 C 3.359375 -1.078125 3.484375 -1.21875 3.578125 -1.40625 L 3.65625 -1.40625 L 4.390625 -0.953125 C 4.242188 -0.640625 4.023438 -0.390625 3.734375 -0.203125 C 3.453125 -0.015625 3.070312 0.078125 2.59375 0.078125 C 2.132812 0.078125 1.738281 -0.00390625 1.40625 -0.171875 C 1.082031 -0.347656 0.832031 -0.601562 0.65625 -0.9375 C 0.476562 -1.28125 0.390625 -1.695312 0.390625 -2.1875 C 0.390625 -2.675781 0.484375 -3.09375 0.671875 -3.4375 C 0.859375 -3.78125 1.109375 -4.035156 1.421875 -4.203125 C 1.742188 -4.367188 2.109375 -4.453125 2.515625 -4.453125 C 3.128906 -4.453125 3.597656 -4.285156 3.921875 -3.953125 C 4.253906 -3.628906 4.421875 -3.148438 4.421875 -2.515625 C 4.421875 -2.285156 4.414062 -2.109375 4.40625 -1.984375 Z M 3.375 -2.640625 C 3.363281 -2.972656 3.285156 -3.210938 3.140625 -3.359375 C 2.992188 -3.515625 2.785156 -3.59375 2.515625 -3.59375 C 1.953125 -3.59375 1.625 -3.273438 1.53125 -2.640625 Z M 3.375 -2.640625 "/></g></g></g><g clip-path="url(#07b3c29966)"><g fill="#000000" fill-opacity="1"><g transform="translate(125.338659, 27.409827)"><g><path d="M 0.625 0 L 0.625 -4.375 L 1.6875 -4.375 L 1.6875 -3.71875 L 1.78125 -3.703125 C 1.882812 -3.941406 2.019531 -4.117188 2.1875 -4.234375 C 2.363281 -4.347656 2.570312 -4.40625 2.8125 -4.40625 C 3.0625 -4.40625 3.253906 -4.363281 3.390625 -4.28125 L 3.203125 -3.328125 L 3.109375 -3.3125 C 3.046875 -3.34375 2.976562 -3.363281 2.90625 -3.375 C 2.84375 -3.394531 2.765625 -3.40625 2.671875 -3.40625 C 2.359375 -3.40625 2.117188 -3.296875 1.953125 -3.078125 C 1.796875 -2.859375 1.71875 -2.515625 1.71875 -2.046875 L 1.71875 0 Z M 0.625 0 "/></g></g></g></g></svg>