<svg xmlns="http://www.w3.org/2000/svg" xmlns:xlink="http://www.w3.org/1999/xlink" width="40" zoomAndPan="magnify" viewBox="0 0 30 30.000001" height="40" preserveAspectRatio="xMidYMid meet" version="1.0"><defs><clipPath id="cb27f8e477"><path d="M 0.484375 0 L 29.515625 0 L 29.515625 5 L 0.484375 5 Z M 0.484375 0 " clip-rule="nonzero"/></clipPath><clipPath id="9bb3dbf7a8"><path d="M 0.484375 12 L 29.515625 12 L 29.515625 17 L 0.484375 17 Z M 0.484375 12 " clip-rule="nonzero"/></clipPath><clipPath id="0250d999c2"><path d="M 0.484375 24 L 29.515625 24 L 29.515625 29.03125 L 0.484375 29.03125 Z M 0.484375 24 " clip-rule="nonzero"/></clipPath></defs><g clip-path="url(#cb27f8e477)"><path stroke-linecap="butt" transform="matrix(4.354839, 0, 0, 4.354839, 0.48387, 2.177421)" fill="none" stroke-linejoin="miter" d="M 0.000115852 -0.000376598 L 6.666551 -0.000376598 " stroke="#000000" stroke-width="1" stroke-opacity="1" stroke-miterlimit="4"/></g><g clip-path="url(#9bb3dbf7a8)"><path stroke-linecap="butt" transform="matrix(4.354839, 0, 0, 4.354839, 0.48387, 14.516131)" fill="none" stroke-linejoin="miter" d="M 0.000115852 -0.000116157 L 6.666551 -0.000116157 " stroke="#000000" stroke-width="1" stroke-opacity="1" stroke-miterlimit="4"/></g><g clip-path="url(#0250d999c2)"><path stroke-linecap="butt" transform="matrix(4.354839, 0, 0, 4.354839, 0.48387, 26.85484)" fill="none" stroke-linejoin="miter" d="M 0.000115852 0.000144283 L 6.666551 0.000144283 " stroke="#000000" stroke-width="1" stroke-opacity="1" stroke-miterlimit="4"/></g></svg>