<svg xmlns="http://www.w3.org/2000/svg" xmlns:xlink="http://www.w3.org/1999/xlink" width="480" zoomAndPan="magnify" viewBox="0 0 360 374.999991" height="500" preserveAspectRatio="xMidYMid meet" version="1.0"><path fill="#000000" d="M 37.0625 223.53125 L 37.0625 368.382812 C 37.0625 372.019531 40.015625 374.976562 43.660156 374.976562 L 199.117188 374.976562 L 199.117188 243.816406 L 272.144531 243.816406 L 272.144531 374.976562 L 315.585938 374.976562 C 319.238281 374.976562 322.183594 372.019531 322.183594 368.382812 L 322.183594 223.53125 L 179.707031 81.664062 Z M 152.996094 304.925781 L 87.101562 304.925781 L 87.101562 243.824219 L 152.996094 243.824219 Z M 152.996094 304.925781 " fill-opacity="1" fill-rule="nonzero"/><path fill="#000000" d="M 351.0625 171.445312 L 179.632812 0.0234375 L 98.757812 80.886719 L 98.757812 45.300781 C 98.757812 36.988281 92.011719 30.242188 83.699219 30.242188 C 75.382812 30.242188 68.636719 36.988281 68.636719 45.300781 L 68.636719 111.007812 L 8.191406 171.445312 C 0.835938 178.800781 0.835938 190.722656 8.191406 198.074219 C 11.867188 201.746094 16.6875 203.585938 21.507812 203.585938 C 26.324219 203.585938 31.136719 201.746094 34.820312 198.078125 L 179.636719 53.277344 L 324.441406 198.074219 C 331.800781 205.429688 343.710938 205.429688 351.0625 198.074219 C 358.410156 190.714844 358.410156 178.796875 351.0625 171.445312 Z M 351.0625 171.445312 " fill-opacity="1" fill-rule="nonzero"/></svg>