<svg xmlns="http://www.w3.org/2000/svg" xmlns:xlink="http://www.w3.org/1999/xlink" width="130" zoomAndPan="magnify" viewBox="0 0 97.5 30.000001" height="40" preserveAspectRatio="xMidYMid meet" version="1.0"><defs><g/></defs><g fill="#ffbd59" fill-opacity="1"><g transform="translate(3.662502, 23.102757)"><g><path d="M 13.175781 -17.113281 L 0.734375 -17.113281 L 0.734375 -13.984375 L 5.328125 -13.984375 L 5.328125 0 L 8.582031 0 L 8.582031 -13.984375 L 13.175781 -13.984375 Z M 13.175781 -17.113281 "/></g></g></g><g fill="#000000" fill-opacity="1"><g transform="translate(17.106161, 23.102757)"><g><path d="M 6.722656 -11.953125 C 5.621094 -11.953125 4.695312 -11.488281 3.984375 -10.757812 L 3.984375 -17.113281 L 0.734375 -17.113281 L 0.734375 0 L 3.984375 0 L 3.984375 -6.40625 C 3.984375 -8.140625 4.792969 -8.921875 5.941406 -8.921875 C 7.113281 -8.921875 7.847656 -8.238281 7.847656 -6.527344 L 7.847656 0 L 11.097656 0 L 11.097656 -6.40625 C 11.097656 -10.023438 9.4375 -11.953125 6.722656 -11.953125 Z M 6.722656 -11.953125 "/></g></g></g><g fill="#000000" fill-opacity="1"><g transform="translate(28.961909, 23.102757)"><g><path d="M 11.441406 -4.71875 C 11.515625 -5.085938 11.539062 -5.476562 11.539062 -5.890625 C 11.539062 -9.289062 9.460938 -11.953125 6.085938 -11.953125 C 2.6875 -11.953125 0.246094 -9.289062 0.246094 -5.890625 C 0.246094 -2.492188 2.8125 0.195312 6.210938 0.195312 C 8.359375 0.195312 10.097656 -0.878906 11.074219 -2.519531 L 8.386719 -3.839844 C 7.921875 -3.179688 7.164062 -2.785156 6.210938 -2.785156 C 4.863281 -2.785156 3.960938 -3.570312 3.59375 -4.71875 Z M 6.085938 -8.996094 C 7.457031 -8.996094 8.1875 -8.164062 8.457031 -6.992188 L 3.570312 -6.992188 C 3.863281 -8.164062 4.71875 -8.996094 6.085938 -8.996094 Z M 6.085938 -8.996094 "/></g></g></g><g fill="#000000" fill-opacity="1"><g transform="translate(40.768765, 23.102757)"><g/></g></g><g fill="#ffbd59" fill-opacity="1"><g transform="translate(46.657861, 23.102757)"><g><path d="M 15.132812 -17.113281 L 9.730469 -8.457031 L 4.375 -17.113281 L 1.34375 -17.113281 L 1.34375 0 L 4.597656 0 L 4.597656 -10.78125 L 8.777344 -4.035156 L 10.707031 -4.035156 L 14.886719 -10.78125 L 14.886719 0 L 18.140625 0 L 18.140625 -17.113281 Z M 15.132812 -17.113281 "/></g></g></g><g fill="#000000" fill-opacity="1"><g transform="translate(65.6738, 23.102757)"><g><path d="M 5.941406 -11.953125 C 3.007812 -11.953125 1.269531 -10.023438 1.050781 -8.484375 L 3.765625 -7.894531 C 3.960938 -8.800781 4.71875 -9.265625 5.71875 -9.289062 C 6.871094 -9.339844 7.628906 -8.605469 7.457031 -7.894531 C 7.308594 -7.234375 6.476562 -7.234375 4.496094 -6.796875 C 2.003906 -6.257812 0.246094 -5.355469 0.246094 -2.785156 C 0.34375 -1.003906 1.613281 0.195312 3.910156 0.195312 C 5.914062 0.195312 7.089844 -0.660156 7.53125 -1.101562 L 7.53125 0 L 10.757812 0 L 10.757812 -7.359375 C 10.757812 -10.78125 8.507812 -11.953125 5.941406 -11.953125 Z M 7.53125 -4.816406 C 7.429688 -3.519531 6.527344 -2.519531 5.253906 -2.324219 C 4.523438 -2.199219 3.789062 -2.347656 3.59375 -2.882812 C 3.375 -3.472656 3.714844 -4.253906 4.914062 -4.570312 C 6.453125 -4.960938 7.53125 -5.183594 7.53125 -5.183594 Z M 7.53125 -4.816406 "/></g></g></g><g fill="#000000" fill-opacity="1"><g transform="translate(77.187316, 23.102757)"><g><path d="M 6.722656 -11.953125 C 5.621094 -11.953125 4.695312 -11.488281 3.984375 -10.757812 L 3.984375 -11.78125 L 0.734375 -11.78125 L 0.734375 0 L 3.984375 0 L 3.984375 -6.40625 C 3.984375 -8.140625 4.792969 -8.921875 5.941406 -8.921875 C 6.378906 -8.921875 6.746094 -8.824219 7.039062 -8.628906 L 7.652344 -11.878906 C 7.359375 -11.929688 7.039062 -11.953125 6.722656 -11.953125 Z M 6.722656 -11.953125 "/></g></g></g><g fill="#000000" fill-opacity="1"><g transform="translate(84.618531, 23.102757)"><g><path d="M 7.652344 -3.472656 C 7.332031 -3.179688 6.722656 -2.980469 6.28125 -2.980469 C 5.253906 -2.980469 4.988281 -3.617188 4.988281 -4.667969 L 4.988281 -8.652344 L 7.726562 -8.652344 L 7.726562 -11.78125 L 4.988281 -11.78125 L 4.988281 -15.15625 L 1.734375 -14.421875 L 1.734375 -11.78125 L 0.121094 -11.78125 L 0.121094 -8.652344 L 1.734375 -8.652344 L 1.734375 -3.617188 C 1.734375 -1.171875 3.128906 0.121094 5.621094 0.121094 C 7.015625 0.121094 8.117188 -0.390625 8.726562 -0.976562 Z M 7.652344 -3.472656 "/></g></g></g></svg>