<svg xmlns="http://www.w3.org/2000/svg" xmlns:xlink="http://www.w3.org/1999/xlink" width="40" zoomAndPan="magnify" viewBox="0 0 30 30.000001" height="40" preserveAspectRatio="xMidYMid meet" version="1.0"><defs><clipPath id="b2f99d9739"><path d="M 0.484375 0 L 29.492188 0 L 29.492188 29.007812 L 0.484375 29.007812 Z M 0.484375 0 " clip-rule="nonzero"/></clipPath><clipPath id="359af32189"><path d="M 3.746094 13 L 26.246094 13 L 26.246094 25 L 3.746094 25 Z M 3.746094 13 " clip-rule="nonzero"/></clipPath><clipPath id="55a5ea7cce"><path d="M 8 2.136719 L 21 2.136719 L 21 15 L 8 15 Z M 8 2.136719 " clip-rule="nonzero"/></clipPath></defs><g clip-path="url(#b2f99d9739)"><path fill="#000000" d="M 14.988281 29.007812 C 11.117188 29.007812 7.46875 27.5 4.734375 24.757812 C 1.992188 22.023438 0.484375 18.378906 0.484375 14.503906 C 0.484375 10.632812 1.992188 6.984375 4.734375 4.25 C 7.46875 1.507812 11.117188 0 14.988281 0 C 18.859375 0 22.507812 1.507812 25.242188 4.25 C 27.984375 6.992188 29.492188 10.632812 29.492188 14.503906 C 29.492188 18.378906 27.984375 22.023438 25.242188 24.757812 C 22.507812 27.5 18.859375 29.007812 14.988281 29.007812 Z M 14.988281 0.871094 C 11.347656 0.871094 7.921875 2.289062 5.347656 4.863281 C 2.773438 7.4375 1.351562 10.863281 1.351562 14.503906 C 1.351562 18.144531 2.773438 21.570312 5.347656 24.144531 C 7.921875 26.71875 11.347656 28.140625 14.988281 28.140625 C 18.628906 28.140625 22.054688 26.71875 24.628906 24.144531 C 27.203125 21.570312 28.625 18.144531 28.625 14.503906 C 28.625 10.863281 27.203125 7.4375 24.628906 4.863281 C 22.054688 2.289062 18.628906 0.871094 14.988281 0.871094 Z M 14.988281 0.871094 " fill-opacity="1" fill-rule="nonzero"/></g><g clip-path="url(#359af32189)"><path fill="#000000" d="M 18.972656 13.648438 C 17.789062 14.578125 16.296875 15.132812 14.679688 15.132812 C 13.101562 15.132812 11.640625 14.605469 10.472656 13.714844 C 6.660156 14.332031 3.746094 17.632812 3.746094 21.617188 C 3.746094 26.039062 7.335938 23.164062 11.761719 23.164062 L 18.230469 23.164062 C 22.65625 23.164062 26.246094 26.039062 26.246094 21.617188 C 26.246094 17.445312 23.050781 14.023438 18.972656 13.648438 Z M 18.972656 13.648438 " fill-opacity="1" fill-rule="nonzero"/></g><g clip-path="url(#55a5ea7cce)"><path fill="#000000" d="M 14.679688 14.203125 C 18 14.203125 20.703125 11.503906 20.703125 8.1875 C 20.703125 4.871094 18 2.171875 14.679688 2.171875 C 11.359375 2.171875 8.65625 4.871094 8.65625 8.1875 C 8.65625 11.503906 11.359375 14.203125 14.679688 14.203125 Z M 14.679688 14.203125 " fill-opacity="1" fill-rule="nonzero"/></g></svg>