<svg xmlns="http://www.w3.org/2000/svg" xmlns:xlink="http://www.w3.org/1999/xlink" width="40" zoomAndPan="magnify" viewBox="0 0 30 30.000001" height="40" preserveAspectRatio="xMidYMid meet" version="1.0"><defs><clipPath id="f4b50410bc"><path d="M 0.484375 14 L 29.515625 14 L 29.515625 29 L 0.484375 29 Z M 0.484375 14 " clip-rule="nonzero"/></clipPath></defs><g clip-path="url(#f4b50410bc)"><path fill="#000000" d="M 20.128906 14.996094 C 18.601562 16.210938 16.679688 16.933594 14.589844 16.933594 C 12.554688 16.933594 10.671875 16.246094 9.164062 15.085938 C 4.242188 15.890625 0.484375 20.195312 0.484375 25.386719 C 0.484375 31.148438 5.113281 27.402344 10.828125 27.402344 L 19.171875 27.402344 C 24.886719 27.402344 29.515625 31.148438 29.515625 25.386719 C 29.515625 19.949219 25.394531 15.484375 20.128906 14.996094 Z M 20.128906 14.996094 " fill-opacity="1" fill-rule="nonzero"/></g><path fill="#000000" d="M 14.589844 15.722656 C 18.875 15.722656 22.363281 12.203125 22.363281 7.878906 C 22.363281 3.558594 18.875 0.0390625 14.589844 0.0390625 C 10.304688 0.0390625 6.820312 3.558594 6.820312 7.878906 C 6.820312 12.203125 10.304688 15.722656 14.589844 15.722656 Z M 14.589844 15.722656 " fill-opacity="1" fill-rule="nonzero"/></svg>