<svg xmlns="http://www.w3.org/2000/svg" xmlns:xlink="http://www.w3.org/1999/xlink" width="100" zoomAndPan="magnify" viewBox="0 0 75 30.000001" height="40" preserveAspectRatio="xMidYMid meet" version="1.0"><defs><g/><clipPath id="156422d1de"><path d="M 1.210938 18 L 7 18 L 7 24 L 1.210938 24 Z M 1.210938 18 " clip-rule="nonzero"/></clipPath><clipPath id="dad1d9cff4"><path d="M 70 19 L 73.789062 19 L 73.789062 24 L 70 24 Z M 70 19 " clip-rule="nonzero"/></clipPath></defs><g clip-path="url(#156422d1de)"><g fill="#000000" fill-opacity="1"><g transform="translate(1.441531, 23.790321)"><g><path d="M 3.8125 -5.484375 L 5.21875 -5.484375 L 3.265625 -2.5625 L 3.265625 0 L 2.09375 0 L 2.09375 -2.5625 L 0.140625 -5.484375 L 1.546875 -5.484375 L 2.6875 -3.796875 Z M 3.8125 -5.484375 "/></g></g></g></g><g fill="#000000" fill-opacity="1"><g transform="translate(6.806725, 23.790321)"><g><path d="M 2.234375 -3.9375 C 2.503906 -3.9375 2.757812 -3.882812 3 -3.78125 C 3.25 -3.675781 3.460938 -3.53125 3.640625 -3.34375 C 3.816406 -3.164062 3.957031 -2.953125 4.0625 -2.703125 C 4.175781 -2.460938 4.234375 -2.203125 4.234375 -1.921875 C 4.234375 -1.648438 4.175781 -1.390625 4.0625 -1.140625 C 3.957031 -0.890625 3.816406 -0.671875 3.640625 -0.484375 C 3.460938 -0.304688 3.25 -0.164062 3 -0.0625 C 2.757812 0.0390625 2.503906 0.09375 2.234375 0.09375 C 1.953125 0.09375 1.691406 0.0390625 1.453125 -0.0625 C 1.210938 -0.164062 1 -0.304688 0.8125 -0.484375 C 0.632812 -0.671875 0.492188 -0.890625 0.390625 -1.140625 C 0.285156 -1.390625 0.234375 -1.648438 0.234375 -1.921875 C 0.234375 -2.203125 0.285156 -2.460938 0.390625 -2.703125 C 0.492188 -2.953125 0.632812 -3.164062 0.8125 -3.34375 C 1 -3.53125 1.210938 -3.675781 1.453125 -3.78125 C 1.691406 -3.882812 1.953125 -3.9375 2.234375 -3.9375 Z M 2.234375 -0.84375 C 2.359375 -0.84375 2.476562 -0.867188 2.59375 -0.921875 C 2.707031 -0.972656 2.804688 -1.039062 2.890625 -1.125 C 2.972656 -1.21875 3.035156 -1.328125 3.078125 -1.453125 C 3.128906 -1.578125 3.15625 -1.71875 3.15625 -1.875 C 3.15625 -2.03125 3.128906 -2.175781 3.078125 -2.3125 C 3.035156 -2.445312 2.972656 -2.5625 2.890625 -2.65625 C 2.804688 -2.757812 2.707031 -2.84375 2.59375 -2.90625 C 2.476562 -2.96875 2.359375 -3 2.234375 -3 C 2.109375 -3 1.988281 -2.96875 1.875 -2.90625 C 1.757812 -2.84375 1.660156 -2.757812 1.578125 -2.65625 C 1.492188 -2.5625 1.425781 -2.445312 1.375 -2.3125 C 1.320312 -2.175781 1.296875 -2.03125 1.296875 -1.875 C 1.296875 -1.71875 1.320312 -1.578125 1.375 -1.453125 C 1.425781 -1.328125 1.492188 -1.21875 1.578125 -1.125 C 1.660156 -1.039062 1.757812 -0.972656 1.875 -0.921875 C 1.988281 -0.867188 2.109375 -0.84375 2.234375 -0.84375 Z M 2.234375 -0.84375 "/></g></g></g><g fill="#000000" fill-opacity="1"><g transform="translate(11.250623, 23.790321)"><g><path d="M 2.78125 -3.84375 L 3.84375 -3.84375 L 3.84375 0 L 2.9375 0 L 2.78125 -0.296875 C 2.65625 -0.203125 2.515625 -0.128906 2.359375 -0.078125 C 2.203125 -0.0234375 2.03125 0 1.84375 0 C 1.707031 0 1.550781 -0.0195312 1.375 -0.0625 C 1.195312 -0.101562 1.03125 -0.179688 0.875 -0.296875 C 0.71875 -0.410156 0.585938 -0.566406 0.484375 -0.765625 C 0.378906 -0.960938 0.328125 -1.222656 0.328125 -1.546875 L 0.328125 -3.84375 L 1.40625 -3.84375 L 1.40625 -1.578125 C 1.40625 -1.460938 1.421875 -1.363281 1.453125 -1.28125 C 1.492188 -1.195312 1.546875 -1.128906 1.609375 -1.078125 C 1.671875 -1.035156 1.742188 -1 1.828125 -0.96875 C 1.910156 -0.945312 2 -0.9375 2.09375 -0.9375 C 2.15625 -0.9375 2.222656 -0.945312 2.296875 -0.96875 C 2.378906 -1 2.457031 -1.039062 2.53125 -1.09375 C 2.601562 -1.144531 2.660156 -1.210938 2.703125 -1.296875 C 2.753906 -1.378906 2.78125 -1.472656 2.78125 -1.578125 Z M 2.78125 -3.84375 "/></g></g></g><g fill="#000000" fill-opacity="1"><g transform="translate(15.454525, 23.790321)"><g><path d="M 1.40625 -3.296875 C 1.457031 -3.378906 1.515625 -3.457031 1.578125 -3.53125 C 1.640625 -3.613281 1.71875 -3.679688 1.8125 -3.734375 C 1.90625 -3.796875 2.007812 -3.84375 2.125 -3.875 C 2.25 -3.914062 2.382812 -3.9375 2.53125 -3.9375 C 2.707031 -3.9375 2.910156 -3.90625 3.140625 -3.84375 L 3.046875 -2.890625 C 2.992188 -2.898438 2.9375 -2.914062 2.875 -2.9375 C 2.832031 -2.945312 2.78125 -2.953125 2.71875 -2.953125 C 2.664062 -2.960938 2.613281 -2.96875 2.5625 -2.96875 C 2.394531 -2.96875 2.238281 -2.941406 2.09375 -2.890625 C 1.957031 -2.847656 1.835938 -2.785156 1.734375 -2.703125 C 1.628906 -2.617188 1.546875 -2.519531 1.484375 -2.40625 C 1.429688 -2.289062 1.40625 -2.164062 1.40625 -2.03125 L 1.40625 0 L 0.328125 0 L 0.328125 -3.84375 L 1.296875 -3.84375 Z M 1.40625 -3.296875 "/></g></g></g><g fill="#000000" fill-opacity="1"><g transform="translate(18.644221, 23.790321)"><g/></g></g><g fill="#000000" fill-opacity="1"><g transform="translate(20.773264, 23.790321)"><g><path d="M 3.859375 -2.828125 C 4.066406 -2.691406 4.226562 -2.523438 4.34375 -2.328125 C 4.457031 -2.128906 4.515625 -1.894531 4.515625 -1.625 C 4.515625 -1.382812 4.453125 -1.15625 4.328125 -0.9375 C 4.210938 -0.726562 4.050781 -0.539062 3.84375 -0.375 C 3.644531 -0.21875 3.421875 -0.0976562 3.171875 -0.015625 C 2.921875 0.0546875 2.65625 0.09375 2.375 0.09375 C 2.09375 0.09375 1.828125 0.0546875 1.578125 -0.015625 C 1.328125 -0.0859375 1.101562 -0.203125 0.90625 -0.359375 C 0.613281 -0.585938 0.410156 -0.859375 0.296875 -1.171875 L 1.390625 -1.671875 C 1.390625 -1.617188 1.40625 -1.550781 1.4375 -1.46875 C 1.476562 -1.394531 1.535156 -1.320312 1.609375 -1.25 C 1.679688 -1.175781 1.78125 -1.113281 1.90625 -1.0625 C 2.03125 -1.007812 2.179688 -0.984375 2.359375 -0.984375 C 2.503906 -0.984375 2.632812 -1 2.75 -1.03125 C 2.863281 -1.070312 2.957031 -1.117188 3.03125 -1.171875 C 3.101562 -1.234375 3.15625 -1.296875 3.1875 -1.359375 C 3.226562 -1.429688 3.25 -1.503906 3.25 -1.578125 C 3.25 -1.660156 3.222656 -1.738281 3.171875 -1.8125 C 3.117188 -1.882812 3.035156 -1.941406 2.921875 -1.984375 C 2.710938 -2.054688 2.492188 -2.113281 2.265625 -2.15625 C 2.035156 -2.207031 1.8125 -2.269531 1.59375 -2.34375 C 1.382812 -2.414062 1.1875 -2.515625 1 -2.640625 C 0.8125 -2.765625 0.664062 -2.9375 0.5625 -3.15625 C 0.457031 -3.351562 0.40625 -3.566406 0.40625 -3.796875 C 0.40625 -4.035156 0.460938 -4.269531 0.578125 -4.5 C 0.703125 -4.738281 0.863281 -4.9375 1.0625 -5.09375 C 1.25 -5.25 1.460938 -5.363281 1.703125 -5.4375 C 1.941406 -5.519531 2.191406 -5.5625 2.453125 -5.5625 C 2.710938 -5.5625 2.960938 -5.519531 3.203125 -5.4375 C 3.441406 -5.363281 3.660156 -5.253906 3.859375 -5.109375 C 4.035156 -4.960938 4.179688 -4.800781 4.296875 -4.625 L 3.40625 -4.015625 C 3.300781 -4.160156 3.164062 -4.28125 3 -4.375 C 2.84375 -4.46875 2.660156 -4.515625 2.453125 -4.515625 C 2.179688 -4.515625 1.96875 -4.453125 1.8125 -4.328125 C 1.65625 -4.203125 1.578125 -4.039062 1.578125 -3.84375 C 1.578125 -3.75 1.617188 -3.664062 1.703125 -3.59375 C 1.796875 -3.519531 1.910156 -3.453125 2.046875 -3.390625 C 2.179688 -3.335938 2.332031 -3.285156 2.5 -3.234375 C 2.675781 -3.191406 2.847656 -3.148438 3.015625 -3.109375 C 3.179688 -3.066406 3.335938 -3.019531 3.484375 -2.96875 C 3.640625 -2.925781 3.765625 -2.878906 3.859375 -2.828125 Z M 3.859375 -2.828125 "/></g></g></g><g fill="#000000" fill-opacity="1"><g transform="translate(25.542331, 23.790321)"><g><path d="M 2.25 -3.9375 C 2.53125 -3.9375 2.789062 -3.878906 3.03125 -3.765625 C 3.269531 -3.648438 3.472656 -3.5 3.640625 -3.3125 C 3.804688 -3.125 3.9375 -2.90625 4.03125 -2.65625 C 4.125 -2.414062 4.171875 -2.164062 4.171875 -1.90625 C 4.171875 -1.75 4.148438 -1.585938 4.109375 -1.421875 L 1.375 -1.421875 C 1.476562 -1.242188 1.625 -1.09375 1.8125 -0.96875 C 2.007812 -0.84375 2.21875 -0.78125 2.4375 -0.78125 C 2.65625 -0.78125 2.847656 -0.796875 3.015625 -0.828125 C 3.179688 -0.867188 3.34375 -0.921875 3.5 -0.984375 L 3.859375 -0.328125 C 3.660156 -0.191406 3.4375 -0.0859375 3.1875 -0.015625 C 2.945312 0.0546875 2.6875 0.09375 2.40625 0.09375 C 2.101562 0.09375 1.820312 0.0390625 1.5625 -0.0625 C 1.300781 -0.164062 1.070312 -0.304688 0.875 -0.484375 C 0.675781 -0.671875 0.519531 -0.890625 0.40625 -1.140625 C 0.289062 -1.390625 0.234375 -1.648438 0.234375 -1.921875 C 0.234375 -2.191406 0.285156 -2.453125 0.390625 -2.703125 C 0.492188 -2.953125 0.632812 -3.164062 0.8125 -3.34375 C 1 -3.53125 1.210938 -3.675781 1.453125 -3.78125 C 1.703125 -3.882812 1.96875 -3.9375 2.25 -3.9375 Z M 3.109375 -2.25 C 3.054688 -2.46875 2.945312 -2.644531 2.78125 -2.78125 C 2.625 -2.925781 2.445312 -3 2.25 -3 C 2.039062 -3 1.851562 -2.925781 1.6875 -2.78125 C 1.519531 -2.644531 1.40625 -2.46875 1.34375 -2.25 Z M 3.109375 -2.25 "/></g></g></g><g fill="#000000" fill-opacity="1"><g transform="translate(30.148809, 23.790321)"><g><path d="M 0.375 -5.65625 L 1.453125 -5.65625 L 1.453125 0 L 0.375 0 Z M 0.375 -5.65625 "/></g></g></g><g fill="#000000" fill-opacity="1"><g transform="translate(31.906237, 23.790321)"><g><path d="M 0.375 -5.65625 L 1.453125 -5.65625 L 1.453125 0 L 0.375 0 Z M 0.375 -5.65625 "/></g></g></g><g fill="#000000" fill-opacity="1"><g transform="translate(33.663665, 23.790321)"><g><path d="M 2.25 -3.9375 C 2.53125 -3.9375 2.789062 -3.878906 3.03125 -3.765625 C 3.269531 -3.648438 3.472656 -3.5 3.640625 -3.3125 C 3.804688 -3.125 3.9375 -2.90625 4.03125 -2.65625 C 4.125 -2.414062 4.171875 -2.164062 4.171875 -1.90625 C 4.171875 -1.75 4.148438 -1.585938 4.109375 -1.421875 L 1.375 -1.421875 C 1.476562 -1.242188 1.625 -1.09375 1.8125 -0.96875 C 2.007812 -0.84375 2.21875 -0.78125 2.4375 -0.78125 C 2.65625 -0.78125 2.847656 -0.796875 3.015625 -0.828125 C 3.179688 -0.867188 3.34375 -0.921875 3.5 -0.984375 L 3.859375 -0.328125 C 3.660156 -0.191406 3.4375 -0.0859375 3.1875 -0.015625 C 2.945312 0.0546875 2.6875 0.09375 2.40625 0.09375 C 2.101562 0.09375 1.820312 0.0390625 1.5625 -0.0625 C 1.300781 -0.164062 1.070312 -0.304688 0.875 -0.484375 C 0.675781 -0.671875 0.519531 -0.890625 0.40625 -1.140625 C 0.289062 -1.390625 0.234375 -1.648438 0.234375 -1.921875 C 0.234375 -2.191406 0.285156 -2.453125 0.390625 -2.703125 C 0.492188 -2.953125 0.632812 -3.164062 0.8125 -3.34375 C 1 -3.53125 1.210938 -3.675781 1.453125 -3.78125 C 1.703125 -3.882812 1.96875 -3.9375 2.25 -3.9375 Z M 3.109375 -2.25 C 3.054688 -2.46875 2.945312 -2.644531 2.78125 -2.78125 C 2.625 -2.925781 2.445312 -3 2.25 -3 C 2.039062 -3 1.851562 -2.925781 1.6875 -2.78125 C 1.519531 -2.644531 1.40625 -2.46875 1.34375 -2.25 Z M 3.109375 -2.25 "/></g></g></g><g fill="#000000" fill-opacity="1"><g transform="translate(38.270143, 23.790321)"><g><path d="M 1.40625 -3.296875 C 1.457031 -3.378906 1.515625 -3.457031 1.578125 -3.53125 C 1.640625 -3.613281 1.71875 -3.679688 1.8125 -3.734375 C 1.90625 -3.796875 2.007812 -3.84375 2.125 -3.875 C 2.25 -3.914062 2.382812 -3.9375 2.53125 -3.9375 C 2.707031 -3.9375 2.910156 -3.90625 3.140625 -3.84375 L 3.046875 -2.890625 C 2.992188 -2.898438 2.9375 -2.914062 2.875 -2.9375 C 2.832031 -2.945312 2.78125 -2.953125 2.71875 -2.953125 C 2.664062 -2.960938 2.613281 -2.96875 2.5625 -2.96875 C 2.394531 -2.96875 2.238281 -2.941406 2.09375 -2.890625 C 1.957031 -2.847656 1.835938 -2.785156 1.734375 -2.703125 C 1.628906 -2.617188 1.546875 -2.519531 1.484375 -2.40625 C 1.429688 -2.289062 1.40625 -2.164062 1.40625 -2.03125 L 1.40625 0 L 0.328125 0 L 0.328125 -3.84375 L 1.296875 -3.84375 Z M 1.40625 -3.296875 "/></g></g></g><g fill="#000000" fill-opacity="1"><g transform="translate(41.459838, 23.790321)"><g/></g></g><g fill="#000000" fill-opacity="1"><g transform="translate(43.588881, 23.790321)"><g><path d="M 3.734375 -5.484375 L 6.03125 0 L 4.75 0 L 4.265625 -1.171875 L 1.9375 -1.171875 L 1.453125 0 L 0.171875 0 L 2.453125 -5.484375 Z M 3.828125 -2.25 L 3.09375 -3.96875 L 2.375 -2.25 Z M 3.828125 -2.25 "/></g></g></g><g fill="#000000" fill-opacity="1"><g transform="translate(49.790207, 23.790321)"><g><path d="M 2.234375 -3 C 2.109375 -3 1.988281 -2.96875 1.875 -2.90625 C 1.757812 -2.84375 1.660156 -2.757812 1.578125 -2.65625 C 1.492188 -2.5625 1.425781 -2.445312 1.375 -2.3125 C 1.320312 -2.175781 1.296875 -2.03125 1.296875 -1.875 C 1.296875 -1.71875 1.320312 -1.578125 1.375 -1.453125 C 1.425781 -1.328125 1.492188 -1.21875 1.578125 -1.125 C 1.660156 -1.039062 1.757812 -0.972656 1.875 -0.921875 C 1.988281 -0.867188 2.109375 -0.84375 2.234375 -0.84375 C 2.390625 -0.84375 2.546875 -0.878906 2.703125 -0.953125 C 2.859375 -1.023438 2.988281 -1.128906 3.09375 -1.265625 L 3.75 -0.625 C 3.570312 -0.40625 3.347656 -0.226562 3.078125 -0.09375 C 2.816406 0.03125 2.535156 0.09375 2.234375 0.09375 C 1.953125 0.09375 1.691406 0.0390625 1.453125 -0.0625 C 1.210938 -0.164062 1 -0.304688 0.8125 -0.484375 C 0.632812 -0.671875 0.492188 -0.890625 0.390625 -1.140625 C 0.285156 -1.390625 0.234375 -1.648438 0.234375 -1.921875 C 0.234375 -2.203125 0.285156 -2.460938 0.390625 -2.703125 C 0.492188 -2.953125 0.632812 -3.164062 0.8125 -3.34375 C 1 -3.53125 1.210938 -3.675781 1.453125 -3.78125 C 1.691406 -3.882812 1.953125 -3.9375 2.234375 -3.9375 C 2.546875 -3.9375 2.835938 -3.867188 3.109375 -3.734375 C 3.378906 -3.609375 3.609375 -3.425781 3.796875 -3.1875 L 3.046875 -2.625 C 2.898438 -2.757812 2.765625 -2.851562 2.640625 -2.90625 C 2.515625 -2.96875 2.378906 -3 2.234375 -3 Z M 2.234375 -3 "/></g></g></g><g fill="#000000" fill-opacity="1"><g transform="translate(53.777326, 23.790321)"><g><path d="M 2.234375 -3 C 2.109375 -3 1.988281 -2.96875 1.875 -2.90625 C 1.757812 -2.84375 1.660156 -2.757812 1.578125 -2.65625 C 1.492188 -2.5625 1.425781 -2.445312 1.375 -2.3125 C 1.320312 -2.175781 1.296875 -2.03125 1.296875 -1.875 C 1.296875 -1.71875 1.320312 -1.578125 1.375 -1.453125 C 1.425781 -1.328125 1.492188 -1.21875 1.578125 -1.125 C 1.660156 -1.039062 1.757812 -0.972656 1.875 -0.921875 C 1.988281 -0.867188 2.109375 -0.84375 2.234375 -0.84375 C 2.390625 -0.84375 2.546875 -0.878906 2.703125 -0.953125 C 2.859375 -1.023438 2.988281 -1.128906 3.09375 -1.265625 L 3.75 -0.625 C 3.570312 -0.40625 3.347656 -0.226562 3.078125 -0.09375 C 2.816406 0.03125 2.535156 0.09375 2.234375 0.09375 C 1.953125 0.09375 1.691406 0.0390625 1.453125 -0.0625 C 1.210938 -0.164062 1 -0.304688 0.8125 -0.484375 C 0.632812 -0.671875 0.492188 -0.890625 0.390625 -1.140625 C 0.285156 -1.390625 0.234375 -1.648438 0.234375 -1.921875 C 0.234375 -2.203125 0.285156 -2.460938 0.390625 -2.703125 C 0.492188 -2.953125 0.632812 -3.164062 0.8125 -3.34375 C 1 -3.53125 1.210938 -3.675781 1.453125 -3.78125 C 1.691406 -3.882812 1.953125 -3.9375 2.234375 -3.9375 C 2.546875 -3.9375 2.835938 -3.867188 3.109375 -3.734375 C 3.378906 -3.609375 3.609375 -3.425781 3.796875 -3.1875 L 3.046875 -2.625 C 2.898438 -2.757812 2.765625 -2.851562 2.640625 -2.90625 C 2.515625 -2.96875 2.378906 -3 2.234375 -3 Z M 2.234375 -3 "/></g></g></g><g fill="#000000" fill-opacity="1"><g transform="translate(57.764445, 23.790321)"><g><path d="M 2.234375 -3.9375 C 2.503906 -3.9375 2.757812 -3.882812 3 -3.78125 C 3.25 -3.675781 3.460938 -3.53125 3.640625 -3.34375 C 3.816406 -3.164062 3.957031 -2.953125 4.0625 -2.703125 C 4.175781 -2.460938 4.234375 -2.203125 4.234375 -1.921875 C 4.234375 -1.648438 4.175781 -1.390625 4.0625 -1.140625 C 3.957031 -0.890625 3.816406 -0.671875 3.640625 -0.484375 C 3.460938 -0.304688 3.25 -0.164062 3 -0.0625 C 2.757812 0.0390625 2.503906 0.09375 2.234375 0.09375 C 1.953125 0.09375 1.691406 0.0390625 1.453125 -0.0625 C 1.210938 -0.164062 1 -0.304688 0.8125 -0.484375 C 0.632812 -0.671875 0.492188 -0.890625 0.390625 -1.140625 C 0.285156 -1.390625 0.234375 -1.648438 0.234375 -1.921875 C 0.234375 -2.203125 0.285156 -2.460938 0.390625 -2.703125 C 0.492188 -2.953125 0.632812 -3.164062 0.8125 -3.34375 C 1 -3.53125 1.210938 -3.675781 1.453125 -3.78125 C 1.691406 -3.882812 1.953125 -3.9375 2.234375 -3.9375 Z M 2.234375 -0.84375 C 2.359375 -0.84375 2.476562 -0.867188 2.59375 -0.921875 C 2.707031 -0.972656 2.804688 -1.039062 2.890625 -1.125 C 2.972656 -1.21875 3.035156 -1.328125 3.078125 -1.453125 C 3.128906 -1.578125 3.15625 -1.71875 3.15625 -1.875 C 3.15625 -2.03125 3.128906 -2.175781 3.078125 -2.3125 C 3.035156 -2.445312 2.972656 -2.5625 2.890625 -2.65625 C 2.804688 -2.757812 2.707031 -2.84375 2.59375 -2.90625 C 2.476562 -2.96875 2.359375 -3 2.234375 -3 C 2.109375 -3 1.988281 -2.96875 1.875 -2.90625 C 1.757812 -2.84375 1.660156 -2.757812 1.578125 -2.65625 C 1.492188 -2.5625 1.425781 -2.445312 1.375 -2.3125 C 1.320312 -2.175781 1.296875 -2.03125 1.296875 -1.875 C 1.296875 -1.71875 1.320312 -1.578125 1.375 -1.453125 C 1.425781 -1.328125 1.492188 -1.21875 1.578125 -1.125 C 1.660156 -1.039062 1.757812 -0.972656 1.875 -0.921875 C 1.988281 -0.867188 2.109375 -0.84375 2.234375 -0.84375 Z M 2.234375 -0.84375 "/></g></g></g><g fill="#000000" fill-opacity="1"><g transform="translate(62.208344, 23.790321)"><g><path d="M 2.78125 -3.84375 L 3.84375 -3.84375 L 3.84375 0 L 2.9375 0 L 2.78125 -0.296875 C 2.65625 -0.203125 2.515625 -0.128906 2.359375 -0.078125 C 2.203125 -0.0234375 2.03125 0 1.84375 0 C 1.707031 0 1.550781 -0.0195312 1.375 -0.0625 C 1.195312 -0.101562 1.03125 -0.179688 0.875 -0.296875 C 0.71875 -0.410156 0.585938 -0.566406 0.484375 -0.765625 C 0.378906 -0.960938 0.328125 -1.222656 0.328125 -1.546875 L 0.328125 -3.84375 L 1.40625 -3.84375 L 1.40625 -1.578125 C 1.40625 -1.460938 1.421875 -1.363281 1.453125 -1.28125 C 1.492188 -1.195312 1.546875 -1.128906 1.609375 -1.078125 C 1.671875 -1.035156 1.742188 -1 1.828125 -0.96875 C 1.910156 -0.945312 2 -0.9375 2.09375 -0.9375 C 2.15625 -0.9375 2.222656 -0.945312 2.296875 -0.96875 C 2.378906 -1 2.457031 -1.039062 2.53125 -1.09375 C 2.601562 -1.144531 2.660156 -1.210938 2.703125 -1.296875 C 2.753906 -1.378906 2.78125 -1.472656 2.78125 -1.578125 Z M 2.78125 -3.84375 "/></g></g></g><g fill="#000000" fill-opacity="1"><g transform="translate(66.412246, 23.790321)"><g><path d="M 2.34375 -3.84375 C 2.488281 -3.84375 2.648438 -3.820312 2.828125 -3.78125 C 3.003906 -3.738281 3.164062 -3.660156 3.3125 -3.546875 C 3.46875 -3.429688 3.597656 -3.269531 3.703125 -3.0625 C 3.804688 -2.863281 3.859375 -2.609375 3.859375 -2.296875 L 3.859375 0 L 2.796875 0 L 2.796875 -2.25 C 2.796875 -2.363281 2.773438 -2.460938 2.734375 -2.546875 C 2.691406 -2.628906 2.640625 -2.695312 2.578125 -2.75 C 2.515625 -2.800781 2.441406 -2.835938 2.359375 -2.859375 C 2.273438 -2.878906 2.191406 -2.890625 2.109375 -2.890625 C 2.046875 -2.890625 1.972656 -2.878906 1.890625 -2.859375 C 1.804688 -2.835938 1.726562 -2.800781 1.65625 -2.75 C 1.59375 -2.695312 1.535156 -2.628906 1.484375 -2.546875 C 1.441406 -2.460938 1.421875 -2.363281 1.421875 -2.25 L 1.421875 0 L 0.359375 0 L 0.359375 -3.84375 L 1.265625 -3.84375 L 1.421875 -3.546875 C 1.546875 -3.628906 1.6875 -3.695312 1.84375 -3.75 C 2 -3.8125 2.164062 -3.84375 2.34375 -3.84375 Z M 2.34375 -3.84375 "/></g></g></g><g clip-path="url(#dad1d9cff4)"><g fill="#000000" fill-opacity="1"><g transform="translate(70.600663, 23.790321)"><g><path d="M 1.765625 -1.375 C 1.765625 -1.195312 1.816406 -1.054688 1.921875 -0.953125 C 2.035156 -0.859375 2.179688 -0.8125 2.359375 -0.8125 C 2.503906 -0.8125 2.648438 -0.835938 2.796875 -0.890625 L 2.796875 0 C 2.671875 0.0390625 2.535156 0.0703125 2.390625 0.09375 C 2.242188 0.125 2.097656 0.140625 1.953125 0.140625 C 1.785156 0.140625 1.628906 0.117188 1.484375 0.078125 C 1.335938 0.0351562 1.203125 -0.03125 1.078125 -0.125 C 0.960938 -0.226562 0.867188 -0.363281 0.796875 -0.53125 C 0.734375 -0.695312 0.703125 -0.90625 0.703125 -1.15625 L 0.703125 -2.890625 L 0.140625 -2.890625 L 0.140625 -3.609375 L 0.703125 -3.84375 L 0.703125 -4.6875 L 1.765625 -4.6875 L 1.765625 -3.84375 L 2.796875 -3.84375 L 2.796875 -2.890625 L 1.765625 -2.890625 Z M 1.765625 -1.375 "/></g></g></g></g><g fill="#ffbd4d" fill-opacity="1"><g transform="translate(6.846017, 13.693567)"><g><path d="M 8.625 -7.71875 C 8.625 -7.363281 8.570312 -7.023438 8.46875 -6.703125 C 8.375 -6.390625 8.238281 -6.101562 8.0625 -5.84375 C 7.882812 -5.582031 7.671875 -5.347656 7.421875 -5.140625 C 7.179688 -4.941406 6.914062 -4.78125 6.625 -4.65625 L 10.265625 0 L 7.53125 0 L 4.140625 -4.421875 L 3.078125 -4.421875 L 3.078125 0 L 0.734375 0 L 0.734375 -10.984375 L 5.46875 -10.984375 C 5.894531 -10.984375 6.300781 -10.894531 6.6875 -10.71875 C 7.082031 -10.550781 7.421875 -10.316406 7.703125 -10.015625 C 7.984375 -9.722656 8.207031 -9.378906 8.375 -8.984375 C 8.539062 -8.585938 8.625 -8.164062 8.625 -7.71875 Z M 5.171875 -6.5625 C 5.472656 -6.5625 5.726562 -6.671875 5.9375 -6.890625 C 6.15625 -7.117188 6.265625 -7.394531 6.265625 -7.71875 C 6.265625 -8.019531 6.15625 -8.28125 5.9375 -8.5 C 5.726562 -8.726562 5.472656 -8.84375 5.171875 -8.84375 L 3.078125 -8.84375 L 3.078125 -6.5625 Z M 5.171875 -6.5625 "/></g></g></g><g fill="#ffbd4d" fill-opacity="1"><g transform="translate(17.480882, 13.693567)"><g><path d="M 4.484375 -7.890625 C 5.066406 -7.890625 5.59375 -7.773438 6.0625 -7.546875 C 6.539062 -7.316406 6.945312 -7.007812 7.28125 -6.625 C 7.625 -6.25 7.890625 -5.816406 8.078125 -5.328125 C 8.265625 -4.835938 8.359375 -4.335938 8.359375 -3.828125 C 8.359375 -3.515625 8.316406 -3.179688 8.234375 -2.828125 L 2.75 -2.828125 C 2.957031 -2.484375 3.253906 -2.1875 3.640625 -1.9375 C 4.023438 -1.695312 4.4375 -1.578125 4.875 -1.578125 C 5.320312 -1.578125 5.710938 -1.613281 6.046875 -1.6875 C 6.378906 -1.757812 6.695312 -1.851562 7 -1.96875 L 7.71875 -0.65625 C 7.332031 -0.382812 6.894531 -0.175781 6.40625 -0.03125 C 5.914062 0.113281 5.390625 0.1875 4.828125 0.1875 C 4.222656 0.1875 3.65625 0.0820312 3.125 -0.125 C 2.601562 -0.34375 2.144531 -0.628906 1.75 -0.984375 C 1.351562 -1.347656 1.039062 -1.773438 0.8125 -2.265625 C 0.59375 -2.765625 0.484375 -3.296875 0.484375 -3.859375 C 0.484375 -4.398438 0.582031 -4.914062 0.78125 -5.40625 C 0.988281 -5.894531 1.273438 -6.320312 1.640625 -6.6875 C 2.015625 -7.0625 2.441406 -7.351562 2.921875 -7.5625 C 3.410156 -7.78125 3.929688 -7.890625 4.484375 -7.890625 Z M 6.234375 -4.484375 C 6.109375 -4.929688 5.882812 -5.296875 5.5625 -5.578125 C 5.25 -5.859375 4.890625 -6 4.484375 -6 C 4.078125 -6 3.703125 -5.859375 3.359375 -5.578125 C 3.023438 -5.296875 2.796875 -4.929688 2.671875 -4.484375 Z M 6.234375 -4.484375 "/></g></g></g><g fill="#ffbd4d" fill-opacity="1"><g transform="translate(26.691578, 13.693567)"><g><path d="M 6.71875 -7.6875 L 8.546875 -7.6875 L 8.546875 -2.59375 C 8.546875 -2.007812 8.535156 -1.488281 8.515625 -1.03125 C 8.503906 -0.570312 8.46875 -0.160156 8.40625 0.203125 C 8.34375 0.578125 8.238281 0.90625 8.09375 1.1875 C 7.957031 1.476562 7.769531 1.75 7.53125 2 C 7.070312 2.4375 6.5625 2.738281 6 2.90625 C 5.4375 3.070312 4.847656 3.15625 4.234375 3.15625 C 3.703125 3.15625 3.203125 3.09375 2.734375 2.96875 C 2.273438 2.84375 1.859375 2.675781 1.484375 2.46875 L 1.484375 0.46875 C 1.578125 0.613281 1.707031 0.738281 1.875 0.84375 C 2.050781 0.957031 2.25 1.054688 2.46875 1.140625 C 2.6875 1.222656 2.921875 1.285156 3.171875 1.328125 C 3.429688 1.378906 3.691406 1.40625 3.953125 1.40625 C 4.285156 1.40625 4.601562 1.359375 4.90625 1.265625 C 5.207031 1.179688 5.46875 1.039062 5.6875 0.84375 C 5.90625 0.65625 6.078125 0.410156 6.203125 0.109375 C 6.335938 -0.179688 6.40625 -0.535156 6.40625 -0.953125 L 6.40625 -1.109375 C 6.113281 -0.847656 5.769531 -0.632812 5.375 -0.46875 C 4.976562 -0.3125 4.550781 -0.234375 4.09375 -0.234375 C 3.570312 -0.234375 3.09375 -0.332031 2.65625 -0.53125 C 2.21875 -0.738281 1.835938 -1.015625 1.515625 -1.359375 C 1.191406 -1.703125 0.941406 -2.109375 0.765625 -2.578125 C 0.585938 -3.046875 0.5 -3.546875 0.5 -4.078125 C 0.5 -4.597656 0.585938 -5.085938 0.765625 -5.546875 C 0.941406 -6.015625 1.191406 -6.421875 1.515625 -6.765625 C 1.835938 -7.117188 2.21875 -7.394531 2.65625 -7.59375 C 3.09375 -7.789062 3.570312 -7.890625 4.09375 -7.890625 C 4.570312 -7.890625 5.007812 -7.828125 5.40625 -7.703125 C 5.800781 -7.578125 6.132812 -7.375 6.40625 -7.09375 Z M 4.515625 -2.140625 C 4.847656 -2.140625 5.132812 -2.195312 5.375 -2.3125 C 5.613281 -2.4375 5.804688 -2.585938 5.953125 -2.765625 C 6.109375 -2.953125 6.222656 -3.160156 6.296875 -3.390625 C 6.367188 -3.617188 6.40625 -3.84375 6.40625 -4.0625 C 6.40625 -4.289062 6.363281 -4.519531 6.28125 -4.75 C 6.207031 -4.988281 6.09375 -5.195312 5.9375 -5.375 C 5.789062 -5.5625 5.597656 -5.710938 5.359375 -5.828125 C 5.117188 -5.941406 4.835938 -6 4.515625 -6 C 4.253906 -6 4.007812 -5.945312 3.78125 -5.84375 C 3.550781 -5.738281 3.347656 -5.597656 3.171875 -5.421875 C 3.003906 -5.242188 2.867188 -5.035156 2.765625 -4.796875 C 2.671875 -4.566406 2.625 -4.320312 2.625 -4.0625 C 2.625 -3.789062 2.671875 -3.535156 2.765625 -3.296875 C 2.867188 -3.066406 3.003906 -2.863281 3.171875 -2.6875 C 3.347656 -2.519531 3.550781 -2.382812 3.78125 -2.28125 C 4.007812 -2.1875 4.253906 -2.140625 4.515625 -2.140625 Z M 4.515625 -2.140625 "/></g></g></g><g fill="#ffbd4d" fill-opacity="1"><g transform="translate(35.871309, 13.693567)"><g><path d="M 3.015625 0 L 0.875 0 L 0.875 -7.6875 L 3.015625 -7.6875 Z M 1.953125 -8.734375 C 1.617188 -8.734375 1.335938 -8.847656 1.109375 -9.078125 C 0.890625 -9.304688 0.78125 -9.582031 0.78125 -9.90625 C 0.78125 -10.238281 0.890625 -10.519531 1.109375 -10.75 C 1.335938 -10.988281 1.617188 -11.109375 1.953125 -11.109375 C 2.285156 -11.109375 2.5625 -10.988281 2.78125 -10.75 C 3.007812 -10.519531 3.125 -10.238281 3.125 -9.90625 C 3.125 -9.582031 3.007812 -9.304688 2.78125 -9.078125 C 2.5625 -8.847656 2.285156 -8.734375 1.953125 -8.734375 Z M 1.953125 -8.734375 "/></g></g></g><g fill="#ffbd4d" fill-opacity="1"><g transform="translate(39.787791, 13.693567)"><g><path d="M 5.578125 -4.03125 C 6.140625 -3.625 6.421875 -3.050781 6.421875 -2.3125 C 6.421875 -1.96875 6.34375 -1.644531 6.1875 -1.34375 C 6.03125 -1.039062 5.8125 -0.773438 5.53125 -0.546875 C 5.25 -0.328125 4.921875 -0.148438 4.546875 -0.015625 C 4.179688 0.109375 3.785156 0.171875 3.359375 0.171875 C 3.035156 0.171875 2.722656 0.128906 2.421875 0.046875 C 2.117188 -0.0351562 1.835938 -0.148438 1.578125 -0.296875 C 1.316406 -0.441406 1.09375 -0.613281 0.90625 -0.8125 C 0.71875 -1.007812 0.578125 -1.234375 0.484375 -1.484375 C 0.722656 -1.597656 0.984375 -1.722656 1.265625 -1.859375 C 1.554688 -2.003906 1.8125 -2.132812 2.03125 -2.25 C 2.125 -2.09375 2.265625 -1.945312 2.453125 -1.8125 C 2.648438 -1.6875 2.921875 -1.625 3.265625 -1.625 C 3.617188 -1.625 3.878906 -1.707031 4.046875 -1.875 C 4.210938 -2.039062 4.296875 -2.195312 4.296875 -2.34375 C 4.296875 -2.445312 4.238281 -2.539062 4.125 -2.625 C 4.007812 -2.707031 3.878906 -2.773438 3.734375 -2.828125 C 3.523438 -2.910156 3.351562 -2.953125 3.21875 -2.953125 C 3.082031 -2.960938 2.925781 -2.992188 2.75 -3.046875 C 2.195312 -3.179688 1.769531 -3.359375 1.46875 -3.578125 C 1.175781 -3.804688 0.960938 -4.03125 0.828125 -4.25 C 0.703125 -4.476562 0.628906 -4.695312 0.609375 -4.90625 C 0.597656 -5.113281 0.59375 -5.28125 0.59375 -5.40625 C 0.59375 -5.738281 0.660156 -6.050781 0.796875 -6.34375 C 0.941406 -6.644531 1.140625 -6.90625 1.390625 -7.125 C 1.648438 -7.351562 1.945312 -7.53125 2.28125 -7.65625 C 2.613281 -7.789062 2.972656 -7.859375 3.359375 -7.859375 C 3.679688 -7.859375 3.984375 -7.8125 4.265625 -7.71875 C 4.554688 -7.632812 4.820312 -7.507812 5.0625 -7.34375 C 5.300781 -7.175781 5.503906 -6.976562 5.671875 -6.75 C 5.847656 -6.519531 5.972656 -6.269531 6.046875 -6 L 4.390625 -5.4375 C 4.328125 -5.625 4.203125 -5.769531 4.015625 -5.875 C 3.828125 -5.988281 3.625 -6.046875 3.40625 -6.046875 C 3.1875 -6.046875 3.007812 -5.972656 2.875 -5.828125 C 2.738281 -5.691406 2.671875 -5.550781 2.671875 -5.40625 C 2.671875 -5.226562 2.734375 -5.085938 2.859375 -4.984375 C 2.992188 -4.890625 3.140625 -4.820312 3.296875 -4.78125 C 3.410156 -4.757812 3.519531 -4.738281 3.625 -4.71875 C 3.738281 -4.707031 3.847656 -4.691406 3.953125 -4.671875 C 4.304688 -4.585938 4.613281 -4.492188 4.875 -4.390625 C 5.144531 -4.296875 5.378906 -4.175781 5.578125 -4.03125 Z M 5.578125 -4.03125 "/></g></g></g><g fill="#ffbd4d" fill-opacity="1"><g transform="translate(46.645496, 13.693567)"><g><path d="M 3.53125 -2.75 C 3.53125 -2.394531 3.640625 -2.117188 3.859375 -1.921875 C 4.085938 -1.722656 4.378906 -1.625 4.734375 -1.625 C 5.023438 -1.625 5.316406 -1.679688 5.609375 -1.796875 L 5.609375 0 C 5.347656 0.0820312 5.070312 0.148438 4.78125 0.203125 C 4.488281 0.265625 4.203125 0.296875 3.921875 0.296875 C 3.585938 0.296875 3.269531 0.253906 2.96875 0.171875 C 2.675781 0.0859375 2.410156 -0.0507812 2.171875 -0.25 C 1.929688 -0.457031 1.738281 -0.726562 1.59375 -1.0625 C 1.457031 -1.394531 1.390625 -1.8125 1.390625 -2.3125 L 1.390625 -5.78125 L 0.296875 -5.78125 L 0.296875 -7.21875 L 1.390625 -7.6875 L 1.390625 -9.40625 L 3.53125 -9.40625 L 3.53125 -7.6875 L 5.609375 -7.6875 L 5.609375 -5.78125 L 3.53125 -5.78125 Z M 3.53125 -2.75 "/></g></g></g><g fill="#ffbd4d" fill-opacity="1"><g transform="translate(52.574392, 13.693567)"><g><path d="M 4.484375 -7.890625 C 5.066406 -7.890625 5.59375 -7.773438 6.0625 -7.546875 C 6.539062 -7.316406 6.945312 -7.007812 7.28125 -6.625 C 7.625 -6.25 7.890625 -5.816406 8.078125 -5.328125 C 8.265625 -4.835938 8.359375 -4.335938 8.359375 -3.828125 C 8.359375 -3.515625 8.316406 -3.179688 8.234375 -2.828125 L 2.75 -2.828125 C 2.957031 -2.484375 3.253906 -2.1875 3.640625 -1.9375 C 4.023438 -1.695312 4.4375 -1.578125 4.875 -1.578125 C 5.320312 -1.578125 5.710938 -1.613281 6.046875 -1.6875 C 6.378906 -1.757812 6.695312 -1.851562 7 -1.96875 L 7.71875 -0.65625 C 7.332031 -0.382812 6.894531 -0.175781 6.40625 -0.03125 C 5.914062 0.113281 5.390625 0.1875 4.828125 0.1875 C 4.222656 0.1875 3.65625 0.0820312 3.125 -0.125 C 2.601562 -0.34375 2.144531 -0.628906 1.75 -0.984375 C 1.351562 -1.347656 1.039062 -1.773438 0.8125 -2.265625 C 0.59375 -2.765625 0.484375 -3.296875 0.484375 -3.859375 C 0.484375 -4.398438 0.582031 -4.914062 0.78125 -5.40625 C 0.988281 -5.894531 1.273438 -6.320312 1.640625 -6.6875 C 2.015625 -7.0625 2.441406 -7.351562 2.921875 -7.5625 C 3.410156 -7.78125 3.929688 -7.890625 4.484375 -7.890625 Z M 6.234375 -4.484375 C 6.109375 -4.929688 5.882812 -5.296875 5.5625 -5.578125 C 5.25 -5.859375 4.890625 -6 4.484375 -6 C 4.078125 -6 3.703125 -5.859375 3.359375 -5.578125 C 3.023438 -5.296875 2.796875 -4.929688 2.671875 -4.484375 Z M 6.234375 -4.484375 "/></g></g></g><g fill="#ffbd4d" fill-opacity="1"><g transform="translate(61.785088, 13.693567)"><g><path d="M 2.796875 -6.609375 C 2.898438 -6.773438 3.019531 -6.929688 3.15625 -7.078125 C 3.289062 -7.234375 3.453125 -7.367188 3.640625 -7.484375 C 3.828125 -7.609375 4.035156 -7.703125 4.265625 -7.765625 C 4.503906 -7.835938 4.773438 -7.875 5.078125 -7.875 C 5.429688 -7.875 5.835938 -7.816406 6.296875 -7.703125 L 6.09375 -5.796875 C 5.988281 -5.816406 5.878906 -5.84375 5.765625 -5.875 C 5.671875 -5.894531 5.566406 -5.910156 5.453125 -5.921875 C 5.335938 -5.941406 5.234375 -5.953125 5.140625 -5.953125 C 4.804688 -5.953125 4.5 -5.90625 4.21875 -5.8125 C 3.9375 -5.71875 3.691406 -5.585938 3.484375 -5.421875 C 3.273438 -5.253906 3.109375 -5.050781 2.984375 -4.8125 C 2.859375 -4.582031 2.796875 -4.335938 2.796875 -4.078125 L 2.796875 0 L 0.671875 0 L 0.671875 -7.6875 L 2.59375 -7.6875 Z M 2.796875 -6.609375 "/></g></g></g></svg>